<mxfile host="app.diagrams.net" modified="2021-04-28T00:55:51.438Z" agent="5.0 (Windows NT 10.0; Win64; x64) AppleWebKit/537.36 (KHTML, like Gecko) Chrome/90.0.4430.72 Safari/537.36" etag="oIMfSaGSEL6mIHxXGAsS" version="14.6.6" type="github">
  <diagram name="Page-1" id="74e2e168-ea6b-b213-b513-2b3c1d86103e">
    <mxGraphModel dx="1422" dy="794" grid="1" gridSize="10" guides="1" tooltips="1" connect="1" arrows="1" fold="1" page="1" pageScale="1" pageWidth="1100" pageHeight="850" background="#ffffff" math="0" shadow="0">
      <root>
        <mxCell id="0" />
        <mxCell id="1" parent="0" />
        <mxCell id="77e6c97f196da883-1" value="冷备流程" style="swimlane;html=1;childLayout=stackLayout;startSize=20;rounded=0;shadow=0;labelBackgroundColor=none;strokeWidth=1;fontFamily=Verdana;fontSize=8;align=center;fillColor=#dae8fc;strokeColor=#6c8ebf;" parent="1" vertex="1">
          <mxGeometry x="69" y="38" width="660" height="750" as="geometry" />
        </mxCell>
        <object label="" id="77e6c97f196da883-26">
          <mxCell style="edgeStyle=orthogonalEdgeStyle;rounded=1;html=1;labelBackgroundColor=none;startArrow=none;startFill=0;startSize=5;endArrow=classicThin;endFill=1;endSize=5;jettySize=auto;orthogonalLoop=1;strokeWidth=1;fontFamily=Verdana;fontSize=8" parent="77e6c97f196da883-1" edge="1">
            <mxGeometry relative="1" as="geometry">
              <mxPoint x="120" y="80" as="sourcePoint" />
              <mxPoint x="190" y="80" as="targetPoint" />
            </mxGeometry>
          </mxCell>
        </object>
        <mxCell id="77e6c97f196da883-2" value="oss" style="swimlane;html=1;startSize=20;" parent="77e6c97f196da883-1" vertex="1">
          <mxGeometry y="20" width="160" height="730" as="geometry" />
        </mxCell>
        <mxCell id="77e6c97f196da883-8" value="自动发起" style="rounded=1;whiteSpace=wrap;html=1;shadow=0;labelBackgroundColor=none;strokeWidth=1;fontFamily=Verdana;fontSize=8;align=center;" parent="77e6c97f196da883-2" vertex="1">
          <mxGeometry x="30" y="41" width="100" height="49" as="geometry" />
        </mxCell>
        <mxCell id="JC7cE8Ey8vav5-9dNLqW-34" value="轮询任务状态" style="rounded=1;whiteSpace=wrap;html=1;" vertex="1" parent="77e6c97f196da883-2">
          <mxGeometry x="40" y="511" width="80" height="42" as="geometry" />
        </mxCell>
        <mxCell id="JC7cE8Ey8vav5-9dNLqW-40" value="完成" style="rhombus;whiteSpace=wrap;html=1;rounded=1;" vertex="1" parent="77e6c97f196da883-2">
          <mxGeometry x="40" y="576.5" width="80" height="50" as="geometry" />
        </mxCell>
        <mxCell id="JC7cE8Ey8vav5-9dNLqW-46" value="" style="endArrow=classic;html=1;exitX=0.5;exitY=0;exitDx=0;exitDy=0;entryX=0.5;entryY=1;entryDx=0;entryDy=0;" edge="1" parent="77e6c97f196da883-2" source="JC7cE8Ey8vav5-9dNLqW-40" target="JC7cE8Ey8vav5-9dNLqW-34">
          <mxGeometry width="50" height="50" relative="1" as="geometry">
            <mxPoint x="60" y="463" as="sourcePoint" />
            <mxPoint x="110" y="413" as="targetPoint" />
          </mxGeometry>
        </mxCell>
        <mxCell id="JC7cE8Ey8vav5-9dNLqW-47" value="任务结束" style="whiteSpace=wrap;html=1;rounded=1;" vertex="1" parent="77e6c97f196da883-2">
          <mxGeometry x="40" y="647" width="80" height="38" as="geometry" />
        </mxCell>
        <mxCell id="JC7cE8Ey8vav5-9dNLqW-48" value="" style="edgeStyle=orthogonalEdgeStyle;rounded=0;orthogonalLoop=1;jettySize=auto;html=1;" edge="1" parent="77e6c97f196da883-2" source="JC7cE8Ey8vav5-9dNLqW-40" target="JC7cE8Ey8vav5-9dNLqW-47">
          <mxGeometry relative="1" as="geometry" />
        </mxCell>
        <mxCell id="JC7cE8Ey8vav5-9dNLqW-49" value="" style="endArrow=classic;html=1;exitX=0.5;exitY=1;exitDx=0;exitDy=0;entryX=0.5;entryY=0;entryDx=0;entryDy=0;" edge="1" parent="77e6c97f196da883-2" source="77e6c97f196da883-8" target="JC7cE8Ey8vav5-9dNLqW-34">
          <mxGeometry width="50" height="50" relative="1" as="geometry">
            <mxPoint x="-69" y="402" as="sourcePoint" />
            <mxPoint x="-19" y="352" as="targetPoint" />
          </mxGeometry>
        </mxCell>
        <mxCell id="77e6c97f196da883-3" value="dumpserver" style="swimlane;html=1;startSize=20;" parent="77e6c97f196da883-1" vertex="1">
          <mxGeometry x="160" y="20" width="160" height="730" as="geometry" />
        </mxCell>
        <mxCell id="77e6c97f196da883-11" value="生成任务并&lt;br&gt;加入任务队列" style="rounded=1;whiteSpace=wrap;html=1;shadow=0;labelBackgroundColor=none;strokeWidth=1;fontFamily=Verdana;fontSize=8;align=center;" parent="77e6c97f196da883-3" vertex="1">
          <mxGeometry x="30" y="41" width="100" height="49" as="geometry" />
        </mxCell>
        <mxCell id="JC7cE8Ey8vav5-9dNLqW-15" value="轮询dump状态" style="rounded=1;whiteSpace=wrap;html=1;" vertex="1" parent="77e6c97f196da883-3">
          <mxGeometry x="30" y="179" width="100" height="41" as="geometry" />
        </mxCell>
        <mxCell id="JC7cE8Ey8vav5-9dNLqW-18" value="完成" style="rhombus;whiteSpace=wrap;html=1;rounded=1;" vertex="1" parent="77e6c97f196da883-3">
          <mxGeometry x="40" y="240" width="80" height="50" as="geometry" />
        </mxCell>
        <mxCell id="JC7cE8Ey8vav5-9dNLqW-21" value="" style="endArrow=classic;html=1;exitX=0.5;exitY=0;exitDx=0;exitDy=0;entryX=0.5;entryY=1;entryDx=0;entryDy=0;" edge="1" parent="77e6c97f196da883-3" source="JC7cE8Ey8vav5-9dNLqW-18" target="JC7cE8Ey8vav5-9dNLqW-15">
          <mxGeometry width="50" height="50" relative="1" as="geometry">
            <mxPoint x="-100" y="259" as="sourcePoint" />
            <mxPoint x="-50" y="209" as="targetPoint" />
          </mxGeometry>
        </mxCell>
        <mxCell id="JC7cE8Ey8vav5-9dNLqW-27" value="写dump到COS" style="whiteSpace=wrap;html=1;rounded=1;" vertex="1" parent="77e6c97f196da883-3">
          <mxGeometry x="20" y="392" width="120" height="36" as="geometry" />
        </mxCell>
        <mxCell id="JC7cE8Ey8vav5-9dNLqW-32" value="完成" style="whiteSpace=wrap;html=1;rounded=1;" vertex="1" parent="77e6c97f196da883-3">
          <mxGeometry x="20" y="452" width="120" height="38" as="geometry" />
        </mxCell>
        <mxCell id="JC7cE8Ey8vav5-9dNLqW-33" value="" style="edgeStyle=orthogonalEdgeStyle;rounded=0;orthogonalLoop=1;jettySize=auto;html=1;" edge="1" parent="77e6c97f196da883-3" source="JC7cE8Ey8vav5-9dNLqW-27" target="JC7cE8Ey8vav5-9dNLqW-32">
          <mxGeometry relative="1" as="geometry" />
        </mxCell>
        <mxCell id="JC7cE8Ey8vav5-9dNLqW-35" value="检查任务状态" style="whiteSpace=wrap;html=1;rounded=1;" vertex="1" parent="77e6c97f196da883-3">
          <mxGeometry x="30" y="582.5" width="110" height="38" as="geometry" />
        </mxCell>
        <mxCell id="77e6c97f196da883-5" value="cache" style="swimlane;html=1;startSize=20;" parent="77e6c97f196da883-1" vertex="1">
          <mxGeometry x="320" y="20" width="180" height="730" as="geometry" />
        </mxCell>
        <mxCell id="JC7cE8Ey8vav5-9dNLqW-11" value="开始dump" style="whiteSpace=wrap;html=1;rounded=1;shadow=0;fontFamily=Verdana;fontSize=8;strokeWidth=1;" vertex="1" parent="77e6c97f196da883-5">
          <mxGeometry x="30" y="120" width="100" height="42" as="geometry" />
        </mxCell>
        <mxCell id="JC7cE8Ey8vav5-9dNLqW-16" value="检查dump状态" style="whiteSpace=wrap;html=1;rounded=1;" vertex="1" parent="77e6c97f196da883-5">
          <mxGeometry x="30" y="250" width="100" height="30" as="geometry" />
        </mxCell>
        <mxCell id="JC7cE8Ey8vav5-9dNLqW-24" value="返回dump" style="whiteSpace=wrap;html=1;rounded=1;" vertex="1" parent="77e6c97f196da883-5">
          <mxGeometry x="30" y="318" width="100" height="40" as="geometry" />
        </mxCell>
        <mxCell id="77e6c97f196da883-6" value="cos" style="swimlane;html=1;startSize=20;" parent="77e6c97f196da883-1" vertex="1">
          <mxGeometry x="500" y="20" width="160" height="730" as="geometry" />
        </mxCell>
        <mxCell id="JC7cE8Ey8vav5-9dNLqW-29" value="写cos" style="whiteSpace=wrap;html=1;rounded=1;" vertex="1" parent="77e6c97f196da883-6">
          <mxGeometry x="20" y="390" width="120" height="40" as="geometry" />
        </mxCell>
        <mxCell id="JC7cE8Ey8vav5-9dNLqW-5" style="edgeStyle=orthogonalEdgeStyle;rounded=0;orthogonalLoop=1;jettySize=auto;html=1;exitX=0;exitY=0.75;exitDx=0;exitDy=0;entryX=1;entryY=0.75;entryDx=0;entryDy=0;" edge="1" parent="77e6c97f196da883-1" source="77e6c97f196da883-11" target="77e6c97f196da883-8">
          <mxGeometry relative="1" as="geometry" />
        </mxCell>
        <mxCell id="JC7cE8Ey8vav5-9dNLqW-17" value="" style="edgeStyle=orthogonalEdgeStyle;rounded=0;orthogonalLoop=1;jettySize=auto;html=1;" edge="1" parent="77e6c97f196da883-1" source="JC7cE8Ey8vav5-9dNLqW-15" target="JC7cE8Ey8vav5-9dNLqW-16">
          <mxGeometry relative="1" as="geometry" />
        </mxCell>
        <mxCell id="JC7cE8Ey8vav5-9dNLqW-19" value="" style="edgeStyle=orthogonalEdgeStyle;rounded=0;orthogonalLoop=1;jettySize=auto;html=1;" edge="1" parent="77e6c97f196da883-1" source="JC7cE8Ey8vav5-9dNLqW-16" target="JC7cE8Ey8vav5-9dNLqW-18">
          <mxGeometry relative="1" as="geometry" />
        </mxCell>
        <mxCell id="JC7cE8Ey8vav5-9dNLqW-30" value="" style="edgeStyle=orthogonalEdgeStyle;rounded=0;orthogonalLoop=1;jettySize=auto;html=1;" edge="1" parent="77e6c97f196da883-1">
          <mxGeometry relative="1" as="geometry">
            <mxPoint x="300" y="422" as="sourcePoint" />
            <mxPoint x="520" y="422" as="targetPoint" />
          </mxGeometry>
        </mxCell>
        <mxCell id="JC7cE8Ey8vav5-9dNLqW-31" value="" style="endArrow=classic;html=1;exitX=0;exitY=0.75;exitDx=0;exitDy=0;entryX=1;entryY=0.75;entryDx=0;entryDy=0;" edge="1" parent="77e6c97f196da883-1" source="JC7cE8Ey8vav5-9dNLqW-29" target="JC7cE8Ey8vav5-9dNLqW-27">
          <mxGeometry width="50" height="50" relative="1" as="geometry">
            <mxPoint x="400" y="562" as="sourcePoint" />
            <mxPoint x="450" y="512" as="targetPoint" />
          </mxGeometry>
        </mxCell>
        <mxCell id="JC7cE8Ey8vav5-9dNLqW-36" value="" style="edgeStyle=orthogonalEdgeStyle;rounded=0;orthogonalLoop=1;jettySize=auto;html=1;" edge="1" parent="77e6c97f196da883-1" source="JC7cE8Ey8vav5-9dNLqW-34" target="JC7cE8Ey8vav5-9dNLqW-35">
          <mxGeometry relative="1" as="geometry" />
        </mxCell>
        <mxCell id="JC7cE8Ey8vav5-9dNLqW-45" value="" style="endArrow=classic;html=1;exitX=0;exitY=0.5;exitDx=0;exitDy=0;entryX=1;entryY=0.5;entryDx=0;entryDy=0;" edge="1" parent="77e6c97f196da883-1" source="JC7cE8Ey8vav5-9dNLqW-35" target="JC7cE8Ey8vav5-9dNLqW-40">
          <mxGeometry width="50" height="50" relative="1" as="geometry">
            <mxPoint x="220" y="713" as="sourcePoint" />
            <mxPoint x="270" y="663" as="targetPoint" />
          </mxGeometry>
        </mxCell>
        <mxCell id="JC7cE8Ey8vav5-9dNLqW-12" value="" style="edgeStyle=orthogonalEdgeStyle;rounded=0;orthogonalLoop=1;jettySize=auto;html=1;" edge="1" parent="1">
          <mxGeometry relative="1" as="geometry">
            <mxPoint x="360" y="195" as="sourcePoint" />
            <mxPoint x="420" y="195" as="targetPoint" />
          </mxGeometry>
        </mxCell>
        <mxCell id="JC7cE8Ey8vav5-9dNLqW-6" value="向cache发起dump命令" style="whiteSpace=wrap;html=1;rounded=1;shadow=0;fontFamily=Verdana;fontSize=8;strokeWidth=1;" vertex="1" parent="1">
          <mxGeometry x="260" y="175" width="100" height="45" as="geometry" />
        </mxCell>
        <mxCell id="JC7cE8Ey8vav5-9dNLqW-7" value="" style="edgeStyle=orthogonalEdgeStyle;rounded=0;orthogonalLoop=1;jettySize=auto;html=1;" edge="1" parent="1" source="77e6c97f196da883-11" target="JC7cE8Ey8vav5-9dNLqW-6">
          <mxGeometry relative="1" as="geometry" />
        </mxCell>
        <mxCell id="JC7cE8Ey8vav5-9dNLqW-14" value="" style="endArrow=classic;html=1;entryX=1;entryY=0.75;entryDx=0;entryDy=0;exitX=0;exitY=0.75;exitDx=0;exitDy=0;" edge="1" parent="1" source="JC7cE8Ey8vav5-9dNLqW-11" target="JC7cE8Ey8vav5-9dNLqW-6">
          <mxGeometry width="50" height="50" relative="1" as="geometry">
            <mxPoint x="420" y="382" as="sourcePoint" />
            <mxPoint x="470" y="332" as="targetPoint" />
          </mxGeometry>
        </mxCell>
        <mxCell id="JC7cE8Ey8vav5-9dNLqW-25" value="" style="edgeStyle=orthogonalEdgeStyle;rounded=0;orthogonalLoop=1;jettySize=auto;html=1;" edge="1" parent="1">
          <mxGeometry relative="1" as="geometry">
            <mxPoint x="370" y="393" as="sourcePoint" />
            <mxPoint x="420" y="393" as="targetPoint" />
          </mxGeometry>
        </mxCell>
        <mxCell id="JC7cE8Ey8vav5-9dNLqW-28" value="" style="edgeStyle=orthogonalEdgeStyle;rounded=0;orthogonalLoop=1;jettySize=auto;html=1;" edge="1" parent="1" source="JC7cE8Ey8vav5-9dNLqW-22" target="JC7cE8Ey8vav5-9dNLqW-27">
          <mxGeometry relative="1" as="geometry" />
        </mxCell>
        <mxCell id="JC7cE8Ey8vav5-9dNLqW-22" value="拉取dump" style="whiteSpace=wrap;html=1;rounded=1;" vertex="1" parent="1">
          <mxGeometry x="250" y="376" width="120" height="40" as="geometry" />
        </mxCell>
        <mxCell id="JC7cE8Ey8vav5-9dNLqW-23" value="" style="edgeStyle=orthogonalEdgeStyle;rounded=0;orthogonalLoop=1;jettySize=auto;html=1;" edge="1" parent="1" source="JC7cE8Ey8vav5-9dNLqW-18" target="JC7cE8Ey8vav5-9dNLqW-22">
          <mxGeometry relative="1" as="geometry" />
        </mxCell>
        <mxCell id="JC7cE8Ey8vav5-9dNLqW-26" value="" style="endArrow=classic;html=1;exitX=0;exitY=0.75;exitDx=0;exitDy=0;entryX=1;entryY=0.75;entryDx=0;entryDy=0;" edge="1" parent="1" source="JC7cE8Ey8vav5-9dNLqW-24" target="JC7cE8Ey8vav5-9dNLqW-22">
          <mxGeometry width="50" height="50" relative="1" as="geometry">
            <mxPoint x="300" y="560" as="sourcePoint" />
            <mxPoint x="350" y="510" as="targetPoint" />
          </mxGeometry>
        </mxCell>
        <mxCell id="JC7cE8Ey8vav5-9dNLqW-50" value="" style="endArrow=classic;html=1;exitX=0.5;exitY=1;exitDx=0;exitDy=0;entryX=0.5;entryY=0;entryDx=0;entryDy=0;" edge="1" parent="1" source="JC7cE8Ey8vav5-9dNLqW-6" target="JC7cE8Ey8vav5-9dNLqW-15">
          <mxGeometry width="50" height="50" relative="1" as="geometry">
            <mxPoint y="480" as="sourcePoint" />
            <mxPoint x="50" y="430" as="targetPoint" />
          </mxGeometry>
        </mxCell>
      </root>
    </mxGraphModel>
  </diagram>
</mxfile>
